<svg width="309" height="33" viewBox="0 0 309 33" fill="none" xmlns="http://www.w3.org/2000/svg">
<g clip-path="url(#clip0_65_1148)">
<mask id="mask0_65_1148" style="mask-type:luminance" maskUnits="userSpaceOnUse" x="159" y="0" width="24" height="33">
<path fill-rule="evenodd" clip-rule="evenodd" d="M159.64 0H182.51V33H159.64V0Z" fill="white"/>
</mask>
<g mask="url(#mask0_65_1148)">
<path fill-rule="evenodd" clip-rule="evenodd" d="M166.39 23.07C166.48 25.12 168.09 26.94 171.12 26.94C173.82 26.94 175.71 25.63 175.76 23.54C175.76 22.09 175.16 20.83 171.94 19.9L168.13 18.83C161.13 16.64 159.96 12.49 159.96 9.6C159.96 3.87 164.78 0 170.84 0C176.9 0 181.54 3.68 181.54 9.83H174.84C174.84 7.69 173.41 6.2 170.75 6.2C168.41 6.2 166.66 7.5 166.66 9.41C166.66 10.25 166.99 11.79 170.06 12.68L173.82 13.89C181.49 16.13 182.6 20.51 182.5 23.58C182.41 30 176.72 33 171.12 33C164.23 33 159.64 28.85 159.64 23.07H166.39Z" fill="white"/>
</g>
<path fill-rule="evenodd" clip-rule="evenodd" d="M214 0.370117L204.54 21.0701L195 0.370117H189.4L185.5 32.4901H192.25L194.49 13.2401L201.93 28.8001H207.12L214.51 13.2401L216.72 32.4901H223.46L219.61 0.370117H214Z" fill="white"/>
<path fill-rule="evenodd" clip-rule="evenodd" d="M237.13 0.370117L225.37 32.4901H232.54L235.34 24.8901H246.26L249.06 32.4901H256.13L244.43 0.370117H237.13ZM240.75 7.78012L244.11 19.0001H237.54L240.75 7.78012Z" fill="white"/>
<path fill-rule="evenodd" clip-rule="evenodd" d="M282.27 10.9101C282.27 5.64012 278.92 0.370117 271.76 0.370117H258.82V32.4901H265.56V21.3901H267.08L274.15 32.4901H282.23L274.38 21.1101C279.8 19.9501 282.27 15.4701 282.27 10.9101ZM271.27 15.4301H265.57V6.43012H271.45C273.98 6.43012 275.26 8.94012 275.26 10.9501C275.26 12.9601 273.88 15.4701 271.26 15.4701" fill="white"/>
<path fill-rule="evenodd" clip-rule="evenodd" d="M284.55 0.370117V6.53012H293.09V32.5301H299.89V6.53012H308.43V0.370117H284.55Z" fill="white"/>
<path fill-rule="evenodd" clip-rule="evenodd" d="M28.46 0.810059L19 21.5101L9.46 0.810059H3.9L0 32.9301H6.75L9 13.6801L16.44 29.2401H21.62L29 13.6801L31.21 32.9301H38L34.11 0.810059H28.46Z" fill="#3DEDA4"/>
<path fill-rule="evenodd" clip-rule="evenodd" d="M55.5901 26.19C56.8466 26.1797 58.0885 25.9199 59.2439 25.4258C60.3992 24.9317 61.4449 24.2131 62.3203 23.3117C63.1957 22.4102 63.8833 21.3439 64.3434 20.1746C64.8034 19.0053 65.0266 17.7563 65.0001 16.5C65.0411 15.2471 64.8297 13.9987 64.3785 12.8291C63.9273 11.6595 63.2456 10.5926 62.3737 9.69181C61.5019 8.79101 60.4579 8.07472 59.3037 7.58553C58.1495 7.09635 56.9087 6.84426 55.6551 6.84426C54.4015 6.84426 53.1607 7.09635 52.0065 7.58553C50.8523 8.07472 49.8082 8.79101 48.9364 9.69181C48.0646 10.5926 47.3828 11.6595 46.9316 12.8291C46.4805 13.9987 46.2691 15.2471 46.3101 16.5C46.2782 17.7502 46.4948 18.9942 46.9473 20.1601C47.3998 21.3259 48.0792 22.3904 48.9461 23.2917C49.813 24.193 50.8502 24.9133 51.9976 25.4109C53.1449 25.9084 54.3796 26.1732 55.6301 26.19M55.5901 0C57.7324 0.0154854 59.8503 0.456007 61.8212 1.29603C63.792 2.13606 65.5765 3.35889 67.0712 4.89364C68.566 6.4284 69.7413 8.24456 70.529 10.2369C71.3167 12.2292 71.7012 14.358 71.6601 16.5C71.6601 20.7554 69.9696 24.8365 66.9606 27.8455C63.9516 30.8545 59.8705 32.545 55.6151 32.545C51.3597 32.545 47.2786 30.8545 44.2695 27.8455C41.2605 24.8365 39.5701 20.7554 39.5701 16.5C39.5277 14.3618 39.9096 12.2365 40.6937 10.2468C41.4778 8.25718 42.6486 6.44271 44.1383 4.90835C45.628 3.37399 47.4071 2.15018 49.3728 1.30768C51.3384 0.465189 53.4516 0.0207276 55.5901 0Z" fill="#3DEDA4"/>
<path fill-rule="evenodd" clip-rule="evenodd" d="M92.1299 0.370117V19.5801L81.2999 0.370117H75.1499V32.4901H81.8499V13.0501L92.8499 32.4901H98.8499V0.370117H92.1299Z" fill="#3DEDA4"/>
<path fill-rule="evenodd" clip-rule="evenodd" d="M105.46 0.370117V32.4901H125.89V26.4901H112.16V19.6201H123.82V13.7001H112.16V6.39012H125.48V0.390117L105.46 0.370117Z" fill="#3DEDA4"/>
<path fill-rule="evenodd" clip-rule="evenodd" d="M131.3 0.27002H137.3C139.33 2.4471 141.064 4.88124 142.46 7.51002C140.932 10.7286 139.823 14.1296 139.16 17.63C137.773 11.5932 134.447 6.17702 129.69 2.21002L127.43 0.27002H131.3ZM145.3 7.51002C146.69 4.87991 148.421 2.44542 150.45 0.27002H160.29L158.05 2.21002C153.299 6.18046 149.977 11.5957 148.59 17.63C147.536 22.5105 147.063 27.4984 147.18 32.49H140.54C140.54 24.13 141.27 16.95 143.86 10.58C144.282 9.53191 144.759 8.50712 145.29 7.51002H145.3Z" fill="#3DEDA4"/>
</g>
<defs>
<clipPath id="clip0_65_1148">
<rect width="309" height="33" fill="white"/>
</clipPath>
</defs>
</svg>
